<svg xmlns="http://www.w3.org/2000/svg" xmlns:xlink="http://www.w3.org/1999/xlink" version="1.1" id="Your_Icon" x="0px" y="0px" width="100px" height="100px" viewBox="0 0 100 100" enable-background="new 0 0 100 100" xml:space="preserve">
<path fill="#000000" d="M92.302,39.477c-0.045-0.64-0.592-1.142-1.226-1.118c-0.287,0.006-2.857,0.104-4.527,1.624  c-1.562,1.422-3.094,2.626-4.593,3.611c-0.007,0.004-0.014,0.006-0.021,0.01c-0.013,0.008-0.023,0.019-0.035,0.027  c-3.318,2.17-6.472,3.266-9.421,3.266c-8.291,0-12.498-8.877-12.539-8.965c-0.012-0.027-0.03-0.05-0.044-0.076  c-0.018-0.034-0.036-0.068-0.058-0.1c-0.023-0.034-0.05-0.064-0.077-0.095c-0.023-0.027-0.044-0.055-0.069-0.08  c-0.04-0.04-0.085-0.075-0.131-0.109c-0.015-0.011-0.027-0.025-0.043-0.036c-0.002-0.001-0.003-0.002-0.005-0.003  c-0.065-0.043-0.133-0.081-0.206-0.111l-0.004-0.002c0,0-0.001,0-0.001,0l-6.91-2.863c-0.494-0.205-1.061-0.06-1.396,0.356  c-7.183,8.906-19.346,19.521-36.5,19.521c-4.419,0-8.223,3.059-9.778,6.386c-0.013,0.028-0.026,0.056-0.037,0.085  c-0.304,0.667-0.525,1.343-0.634,2.008c-0.445,2.724,0.882,4.885,3.562,5.784c9.081,2.945,36.016,4.534,56.749,4.534  c8.153,0,22.787-0.248,29.194-1.908c0.561-0.145,0.938-0.67,0.898-1.249L92.302,39.477z M88.168,41.762  c0.483-0.44,1.198-0.697,1.824-0.84l0.467,6.625c-3.215-0.311-5.159-1.723-6.122-2.677C85.601,43.969,86.878,42.936,88.168,41.762z   M72.479,49.303c3.138,0,6.425-1.04,9.823-3.091c1.177,1.287,3.802,3.448,8.328,3.764l0.939,13.332  c-10.983,1.386-21.994,1.841-32.288,1.752l-8.465-16.97c2.928-2.156,5.707-4.645,7.889-7.431  C60.536,43.614,65.028,49.303,72.479,49.303z M21.878,59.233c-0.105-1.165-0.599-2.159-1.157-2.942  c1.187-0.173,2.346-0.395,3.48-0.659c0.581,1.016,1.094,2.122,1.101,2.551c0.01,0.572,0.382,1.05,0.95,1.218  c0.119,0.035,0.27,0.052,0.449,0.052c1.547,0,5.227-1.261,9.058-2.908l3.752,7.703c-6.977-0.504-13.213-1.176-18.357-1.835  C21.732,61.387,21.976,60.323,21.878,59.233z M43.656,64.52l-4.611-9.468c0.578-0.277,1.149-0.556,1.701-0.836  c0.36-0.183,0.729-0.375,1.103-0.571l5.378,11.068C46.019,64.654,44.829,64.59,43.656,64.52z M51.32,64.884l-6.314-12.996  c0.926-0.542,1.866-1.119,2.81-1.731l7.402,14.839C53.903,64.968,52.605,64.93,51.32,64.884z M52.298,37.024l4.682,1.94  C49.161,49.161,31.634,56.07,27.477,56.966c-0.214-0.661-0.548-1.363-0.871-1.966C38.032,51.628,46.583,43.93,52.298,37.024z   M14.496,56.742c1.118,0,2.216-0.043,3.293-0.125c0.534,0.462,1.58,1.525,1.694,2.843c0.073,0.848-0.27,1.72-1.014,2.598  c-5.023-0.686-8.748-1.319-10.753-1.681C9.215,58.381,11.78,56.742,14.496,56.742z M64.358,70.728  c-20.549,0-47.161-1.548-55.995-4.413c-1.542-0.517-2.196-1.565-1.942-3.112c0.032-0.196,0.079-0.394,0.137-0.593  c1.822,0.338,6.053,1.083,12.035,1.891c0.106,0.03,0.214,0.05,0.324,0.05c0.01,0,0.019-0.003,0.029-0.003  c10.318,1.382,25.687,2.927,42.834,2.927c9.621,0,19.8-0.493,29.958-1.768l0.24,3.415C87.062,70.146,77.13,70.728,64.358,70.728z"/>
</svg>